<svg xmlns="http://www.w3.org/2000/svg" viewBox="0 0 1000 300" role="img" aria-hidden="true" font-family="Segoe UI, Plus Jakarta Sans, sans-serif"><rect x="0" y="0" width="1000" height="300" rx="0" fill="#FFFFFF"/><rect x="40.0" y="110" width="190" height="90" rx="10" fill="#F3F2F1" stroke="#D2D0CE" stroke-width="1"/><circle cx="135.0" cy="140" r="16" fill="#0078D4"/><text x="135.0" y="146" font-size="12" fill="#FFFFFF" font-weight="700" text-anchor="middle">1</text><text x="135.0" y="180" font-size="12" fill="#323130" font-weight="600" text-anchor="middle">Get data</text><line x1="236.0" y1="155" x2="277.3333333333333" y2="155" stroke="#B3B0AD" stroke-width="2"/><polygon points="277.3333333333333,149 289.3333333333333,155 277.3333333333333,161" fill="#B3B0AD"/><rect x="283.33333333333337" y="110" width="190" height="90" rx="10" fill="#F3F2F1" stroke="#D2D0CE" stroke-width="1"/><circle cx="378.33333333333337" cy="140" r="16" fill="#0078D4"/><text x="378.33333333333337" y="146" font-size="12" fill="#FFFFFF" font-weight="700" text-anchor="middle">2</text><text x="378.33333333333337" y="180" font-size="12" fill="#323130" font-weight="600" text-anchor="middle">Clean</text><line x1="479.33333333333337" y1="155" x2="520.6666666666667" y2="155" stroke="#B3B0AD" stroke-width="2"/><polygon points="520.6666666666667,149 532.6666666666667,155 520.6666666666667,161" fill="#B3B0AD"/><rect x="526.6666666666667" y="110" width="190" height="90" rx="10" fill="#F3F2F1" stroke="#D2D0CE" stroke-width="1"/><circle cx="621.6666666666667" cy="140" r="16" fill="#0078D4"/><text x="621.6666666666667" y="146" font-size="12" fill="#FFFFFF" font-weight="700" text-anchor="middle">3</text><text x="621.6666666666667" y="180" font-size="12" fill="#323130" font-weight="600" text-anchor="middle">Connect</text><line x1="722.6666666666667" y1="155" x2="764.0000000000001" y2="155" stroke="#B3B0AD" stroke-width="2"/><polygon points="764.0000000000001,149 776.0000000000001,155 764.0000000000001,161" fill="#B3B0AD"/><rect x="770.0" y="110" width="190" height="90" rx="10" fill="#F3F2F1" stroke="#D2D0CE" stroke-width="1"/><circle cx="865.0" cy="140" r="16" fill="#0078D4"/><text x="865.0" y="146" font-size="12" fill="#FFFFFF" font-weight="700" text-anchor="middle">4</text><text x="865.0" y="180" font-size="12" fill="#323130" font-weight="600" text-anchor="middle">Show</text></svg>