<svg xmlns="http://www.w3.org/2000/svg" viewBox="0 0 1000 620" role="img" aria-hidden="true" font-family="Segoe UI, Plus Jakarta Sans, sans-serif"><rect x="0" y="0" width="1000" height="620" rx="0" fill="#FFFFFF"/><rect x="0" y="0" width="1000" height="620" rx="0" fill="#F8F8F8"/><rect x="63" y="43" width="880" height="520" rx="6" fill="#00000018"/><rect x="60" y="40" width="880" height="520" rx="6" fill="#FFFFFF" stroke="#D2D0CE" stroke-width="1"/><rect x="60" y="40" width="880" height="40" rx="6" fill="#F3F2F1"/><rect x="60" y="70" width="880" height="10" rx="0" fill="#F3F2F1"/><text x="76" y="65" font-size="12" fill="#323130" font-weight="700" text-anchor="start">Open</text><text x="924" y="65" font-size="11" fill="#605E5C" font-weight="400" text-anchor="end">✕</text><rect x="848" y="514" width="76" height="30" rx="3" fill="#FFFFFF" stroke="#D2D0CE" stroke-width="1"/><text x="886.0" y="534" font-size="10.5" fill="#323130" font-weight="400" text-anchor="middle">Cancel</text><rect x="762" y="514" width="76" height="30" rx="3" fill="#0078D4" stroke="#0078D4" stroke-width="2"/><text x="800.0" y="534" font-size="10.5" fill="#FFFFFF" font-weight="700" text-anchor="middle">Open</text><rect x="76" y="96" width="200" height="400" rx="4" fill="#FAFAFA" stroke="#E1DFDD" stroke-width="1"/><text x="94" y="128" font-size="10" fill="#323130" font-weight="400" text-anchor="start">📁  Quick access</text><text x="94" y="158" font-size="10" fill="#323130" font-weight="400" text-anchor="start">📁  Desktop</text><rect x="80" y="170" width="192" height="26" rx="3" fill="#DEECF9"/><text x="94" y="188" font-size="10" fill="#323130" font-weight="700" text-anchor="start">📁  Downloads</text><text x="94" y="218" font-size="10" fill="#323130" font-weight="400" text-anchor="start">📁  Documents</text><text x="94" y="248" font-size="10" fill="#323130" font-weight="400" text-anchor="start">📁  Pictures</text><text x="94" y="278" font-size="10" fill="#323130" font-weight="400" text-anchor="start">📁  This PC</text><rect x="292" y="96" width="632" height="400" rx="4" fill="#FFFFFF" stroke="#E1DFDD" stroke-width="1"/><rect x="292" y="96" width="632" height="28" rx="0" fill="#F3F2F1"/><text x="306" y="115" font-size="9.5" fill="#605E5C" font-weight="600" text-anchor="start">Name</text><text x="700" y="115" font-size="9.5" fill="#605E5C" font-weight="600" text-anchor="start">Date modified</text><text x="860" y="115" font-size="9.5" fill="#605E5C" font-weight="600" text-anchor="start">Size</text><text x="310" y="147" font-size="10" fill="#323130" font-weight="400" text-anchor="start">📄  capstone-superstore.zip</text><text x="700" y="147" font-size="9.5" fill="#605E5C" font-weight="400" text-anchor="start">29/07/2026</text><text x="860" y="147" font-size="9.5" fill="#605E5C" font-weight="400" text-anchor="start">4 KB</text><rect x="294" y="160" width="628" height="26" rx="2" fill="#DEECF9"/><text x="310" y="177" font-size="10" fill="#323130" font-weight="700" text-anchor="start">📄  coffee-sales.csv</text><text x="700" y="177" font-size="9.5" fill="#605E5C" font-weight="400" text-anchor="start">29/07/2026</text><text x="860" y="177" font-size="9.5" fill="#605E5C" font-weight="400" text-anchor="start">4 KB</text><text x="310" y="207" font-size="10" fill="#323130" font-weight="400" text-anchor="start">📄  messy-orders.csv</text><text x="700" y="207" font-size="9.5" fill="#605E5C" font-weight="400" text-anchor="start">29/07/2026</text><text x="860" y="207" font-size="9.5" fill="#605E5C" font-weight="400" text-anchor="start">4 KB</text><text x="310" y="237" font-size="10" fill="#323130" font-weight="400" text-anchor="start">📄  notes.txt</text><text x="700" y="237" font-size="9.5" fill="#605E5C" font-weight="400" text-anchor="start">29/07/2026</text><text x="860" y="237" font-size="9.5" fill="#605E5C" font-weight="400" text-anchor="start">4 KB</text><text x="310" y="267" font-size="10" fill="#323130" font-weight="400" text-anchor="start">📄  report-draft.pbix</text><text x="700" y="267" font-size="9.5" fill="#605E5C" font-weight="400" text-anchor="start">29/07/2026</text><text x="860" y="267" font-size="9.5" fill="#605E5C" font-weight="400" text-anchor="start">4 KB</text><text x="76" y="520" font-size="10" fill="#605E5C" font-weight="400" text-anchor="start">File name:</text><rect x="150" y="506" width="480" height="26" rx="3" fill="#FFFFFF" stroke="#D2D0CE" stroke-width="1"/><text x="160" y="524" font-size="10" fill="#323130" font-weight="400" text-anchor="start">coffee-sales.csv</text></svg>