<svg xmlns="http://www.w3.org/2000/svg" viewBox="0 0 1000 274" role="img" aria-hidden="true" font-family="Segoe UI, Plus Jakarta Sans, sans-serif"><rect x="0" y="0" width="1000" height="274" rx="0" fill="#FFFFFF"/><rect x="0" y="0" width="1000" height="74" rx="0" fill="#F3F2F1"/><line x1="0" y1="74" x2="1000" y2="74" stroke="#D2D0CE" stroke-width="1"/><circle cx="22" cy="18" r="6" fill="#FF5F57"/><circle cx="40" cy="18" r="6" fill="#FEBC2E"/><circle cx="58" cy="18" r="6" fill="#28C840"/><rect x="90" y="8" width="240" height="22" rx="6" fill="#FFFFFF" stroke="#E1DFDD" stroke-width="1"/><text x="102" y="23" font-size="9.5" fill="#323130" font-weight="600" text-anchor="start">Coffee Dashboard - Power BI</text><rect x="20" y="40" width="960" height="26" rx="13" fill="#FFFFFF" stroke="#D2D0CE" stroke-width="1"/><text x="40" y="58" font-size="10" fill="#605E5C" font-weight="400" text-anchor="start">🔒  app.powerbi.com</text><rect x="0" y="74" width="1000" height="200" rx="0" fill="#F5F5F5"/><rect x="20" y="90" width="960" height="44" rx="6" fill="#FFFFFF" stroke="#E1DFDD" stroke-width="1"/><text x="40" y="118" font-size="13" fill="#323130" font-weight="700" text-anchor="start">Coffee Dashboard</text><text x="230" y="118" font-size="10" fill="#605E5C" font-weight="400" text-anchor="start">File</text><text x="322" y="118" font-size="10" fill="#605E5C" font-weight="400" text-anchor="start">Export</text><text x="414" y="118" font-size="10" fill="#605E5C" font-weight="400" text-anchor="start">Chat in Teams</text><text x="506" y="118" font-size="10" fill="#605E5C" font-weight="400" text-anchor="start">Get insights</text><rect x="850" y="98" width="100" height="28" rx="4" fill="#FFFFFF" stroke="#0078D4" stroke-width="2"/><text x="900" y="117" font-size="10.5" fill="#0078D4" font-weight="700" text-anchor="middle">Share</text></svg>